Coordinates
version=1
nRows=10
nColumns=40
inDegrees=yes

Units are S.I. units (second, meters, Newtons, ...)
If the header above contains a line with 'inDegrees', this indicates whether rotational values are in degrees (yes) or radians (no).

endheader
time	pelvis_tilt	pelvis_list	pelvis_rotation	pelvis_tx	pelvis_ty	pelvis_tz	hip_flexion_r	hip_adduction_r	hip_rotation_r	knee_angle_r	knee_angle_r_beta	ankle_angle_r	subtalar_angle_r	mtp_angle_r	hip_flexion_l	hip_adduction_l	hip_rotation_l	knee_angle_l	knee_angle_l_beta	ankle_angle_l	subtalar_angle_l	mtp_angle_l	lumbar_extension	lumbar_bending	lumbar_rotation	arm_flex_r	arm_add_r	arm_rot_r	elbow_flex_r	pro_sup_r	wrist_flex_r	wrist_dev_r	arm_flex_l	arm_add_l	arm_rot_l	elbow_flex_l	pro_sup_l	wrist_flex_l	wrist_dev_l
      4.45000000	    -39.34861570	      9.79187722	      4.68169248	     -0.33022926	      0.76451027	     -1.04708599	     21.33232555	     -6.97448497	    -11.58076928	    107.66694399	      1.87914267	    -20.23216307	      0.00000000	      0.00000000	     90.86524183	      7.84870314	    -15.78442517	     81.52342652	      1.42285221	     27.98213702	      0.00000000	      0.00000000	      5.02635724	    -16.96925373	     -5.98707902	     89.95735855	    -11.64233846	     13.91409254	     47.90308430	     85.85682174	      0.00000000	      0.00000000	     89.96127675	    -18.73739616	     15.73439928	     49.27552552	     84.90610951	      0.00000000	      0.00000000
      4.45500000	    -39.42382764	      9.83589718	      4.77224249	     -0.33012583	      0.76389944	     -1.04713828	     21.28131299	     -7.09270222	    -11.67899528	    107.69743242	      1.87967479	    -20.22783813	      0.00000000	      0.00000000	     90.95847334	      7.82052677	    -15.94470610	     81.59530332	      1.42410670	     27.94219528	      0.00000000	      0.00000000	      5.05293796	    -17.05779417	     -6.07939108	     89.95738414	    -11.66468638	     13.84932311	     47.92722863	     85.78583926	      0.00000000	      0.00000000	     89.96136366	    -18.69813287	     15.72491457	     49.30454318	     85.15819911	      0.00000000	      0.00000000
      4.46000000	    -39.44560810	      9.87990299	      4.84935433	     -0.32992204	      0.76330152	     -1.04713573	     21.18237481	     -7.18649494	    -11.75900042	    107.70982031	      1.87989100	    -20.27033755	      0.00000000	      0.00000000	     90.99361529	      7.81118947	    -16.06704279	     81.68043489	      1.42559252	     27.95370341	      0.00000000	      0.00000000	      5.01374654	    -17.11680641	     -6.19062157	     89.95747203	    -11.63787079	     13.77650756	     48.01178007	     85.68323124	      0.00000000	      0.00000000	     89.96137625	    -18.73279607	     15.78193388	     49.32998632	     85.12738061	      0.00000000	      0.00000000
      4.46500000	    -39.52415371	      9.82513591	      4.95451002	     -0.32988690	      0.76262632	     -1.04712227	     21.17864515	     -7.14923014	    -11.87541930	    107.72324830	      1.88012536	    -20.36011814	      0.00000000	      0.00000000	     91.13246693	      7.80276897	    -16.09716593	     81.79227836	      1.42754456	     27.90201116	      0.00000000	      0.00000000	      5.05943223	    -17.11375085	     -6.29292754	     89.95749604	    -11.66985170	     13.66150665	     48.01577177	     85.82363497	      0.00000000	      0.00000000	     89.96143535	    -18.67897138	     15.83727344	     49.32213764	     85.05367300	      0.00000000	      0.00000000
      4.47000000	    -39.64295883	      9.74359150	      5.09252310	     -0.32991945	      0.76194672	     -1.04712105	     21.20528363	     -7.11651176	    -12.06119097	    107.71837199	      1.88004026	    -20.55172162	      0.00000000	      0.00000000	     91.29498545	      7.78875151	    -16.14078005	     81.88722060	      1.42920161	     27.90528576	      0.00000000	      0.00000000	      5.12909187	    -17.08091235	     -6.44390389	     89.95763565	    -11.68085859	     13.58457943	     48.04289568	     85.72236733	      0.00000000	      0.00000000	     89.96143475	    -18.60807044	     15.77952628	     49.31930806	     85.04023874	      0.00000000	      0.00000000
      4.47500000	    -39.66637481	      9.77281316	      5.22007502	     -0.32980441	      0.76136333	     -1.04725273	     21.06884296	     -7.22714306	    -12.20431775	    107.73377643	      1.88030911	    -20.46720060	      0.00000000	      0.00000000	     91.33801563	      7.83794345	    -16.26689634	     81.95472681	      1.43037982	     27.94946219	      0.00000000	      0.00000000	      5.09181314	    -17.15085046	     -6.59263923	     89.95764819	    -11.71864629	     13.66140161	     48.13419512	     85.71805221	      0.00000000	      0.00000000	     89.96156599	    -18.63278497	     15.87211510	     49.33631146	     84.99892197	      0.00000000	      0.00000000
      4.48000000	    -39.78835591	      9.72827235	      5.30827238	     -0.32983697	      0.76063835	     -1.04718287	     21.12608519	     -7.18135042	    -12.28160814	    107.75518133	      1.88068270	    -20.62780901	      0.00000000	      0.00000000	     91.51907756	      7.80829004	    -16.30180625	     82.05618936	      1.43215068	     27.86652347	      0.00000000	      0.00000000	      5.18488427	    -17.14761103	     -6.66425304	     89.95777223	    -11.71187080	     13.54552206	     48.14449660	     85.72568439	      0.00000000	      0.00000000	     89.96159516	    -18.57611544	     15.92562746	     49.35959187	     85.11953121	      0.00000000	      0.00000000
      4.48500000	    -39.82961999	      9.73294218	      5.38964174	     -0.32967810	      0.76009449	     -1.04719515	     21.06702882	     -7.20528497	    -12.33732189	    107.75133936	      1.88061565	    -20.69347104	      0.00000000	      0.00000000	     91.58373640	      7.78816381	    -16.41350273	     82.14821140	      1.43375676	     27.88003921	      0.00000000	      0.00000000	      5.18884449	    -17.18632018	     -6.74806293	     89.95777242	    -11.71733479	     13.44055281	     48.16271064	     85.86021178	      0.00000000	      0.00000000	     89.96169430	    -18.54036020	     15.98337868	     49.35762587	     84.98203596	      0.00000000	      0.00000000
      4.49000000	    -39.84816132	      9.68261095	      5.46761303	     -0.32958335	      0.75952563	     -1.04710162	     20.99488787	     -7.15118345	    -12.42741519	    107.74641839	      1.88052976	    -20.76773315	      0.00000000	      0.00000000	     91.64202231	      7.76396432	    -16.45050791	     82.25178142	      1.43556440	     27.89527240	      0.00000000	      0.00000000	      5.15645738	    -17.16858661	     -6.84809693	     89.95791674	    -11.72412611	     13.38608181	     48.23275545	     85.78979068	      0.00000000	      0.00000000	     89.96173370	    -18.51514024	     15.97078665	     49.41651432	     85.11786099	      0.00000000	      0.00000000
      4.49500000	    -39.94914817	      9.52299363	      5.61354069	     -0.32972238	      0.75884321	     -1.04708004	     21.04340833	     -6.99181492	    -12.60447245	    107.74934795	      1.88058089	    -20.93552175	      0.00000000	      0.00000000	     91.81464671	      7.78812658	    -16.37818253	     82.34352526	      1.43716563	     27.87812076	      0.00000000	      0.00000000	      5.21393889	    -17.04138581	     -6.99185060	     89.95798377	    -11.72839948	     13.31339819	     48.28473439	     85.72042532	      0.00000000	      0.00000000	     89.96179428	    -18.48764596	     15.99866721	     49.41372318	     85.12006032	      0.00000000	      0.00000000
